<svg xmlns="http://www.w3.org/2000/svg" width="160" height="24" fill="none" viewBox="0 0 160 24">
    <path fill="#E8351D" d="M22.587.497h-4.4c-.098 0-.294.099-.294.198l-6.062 13.488c-.098.297-.489.297-.684 0L5.084.695c-.097-.1-.195-.198-.293-.198h-4.4C.196.497 0 .695 0 .893v22.215c0 .199.196.397.391.397h4.302c.196 0 .391-.198.391-.397V12.695c0-.397.49-.496.685-.198l4.107 8.826.097.1h3.13c.097 0 .293-.1.293-.2l4.008-8.726c.196-.397.685-.199.685.198v10.413c0 .199.196.397.391.397h4.302c.196 0 .391-.198.391-.397V.893c-.195-.198-.39-.396-.586-.396z"/>
    <path fill="#E17D37" d="M38.427.595l-.098-.1H32.95c-.195 0-.293.1-.293.2l-7.822 22.214c-.098.199.097.496.293.496h4.302c.196 0 .293-.1.293-.198l1.467-4.265c.098-.099.196-.297.294-.297h7.626c.196 0 .294.099.294.297l1.368 4.265c0 .198.196.297.294.297h4.302c.293 0 .391-.198.293-.496L38.427.595zm-.49 14.38H33.05c-.196 0-.391-.198-.391-.496l2.444-7.934c.098-.297.587-.297.685 0l2.444 7.934c.098.298-.098.496-.293.496z"/>
    <path fill="#00A49D" d="M62.676 14.182c-.49-.992-1.174-1.885-1.858-2.678a5.644 5.644 0 0 0-1.956-1.29c-.195-.098-.293-.396-.195-.594L66 .992c.196-.199 0-.595-.293-.595h-4.89c-.097 0-.195 0-.292.099L54.07 8.132c-.195.298-.587.1-.587-.198V.893c0-.199-.195-.397-.39-.397h-4.4c-.196 0-.392.198-.392.397v22.214c0 .199.196.397.391.397h4.4c.196 0 .391-.198.391-.397v-7.04c0-.1 0-.2.098-.2l1.956-2.28c.489.099.88.297 1.173.396.294.199.587.397.88.695l.587.892c.195.397.391.794.684 1.19l2.934 6.447c.097.099.195.198.293.198h4.4c.293 0 .391-.298.293-.496l-4.106-8.727z"/>
    <path fill="#006A8B" d="M83.307 19.438h-8.8c-.685 0-.978-.198-1.076-.297-.195-.199-.293-.496-.293-.992V14.28c0-.198.195-.397.391-.397h9.289c.195 0 .391-.198.391-.396v-3.372c0-.199-.196-.397-.391-.397h-9.289c-.195 0-.391-.198-.391-.397v-3.57c0-.397.098-.793.293-.992.196-.198.49-.297 1.076-.297h8.604c.196 0 .391-.199.391-.397V.893c0-.199-.195-.397-.39-.397h-10.17c-1.662 0-2.835.297-3.617.992-.783.694-1.174 1.884-1.174 3.57v13.785c0 1.686.391 2.876 1.174 3.57.782.694 1.955.992 3.617.992h10.365c.195 0 .39-.198.39-.397v-3.173c0-.199-.195-.397-.39-.397z"/>
    <path fill="#E8351D" d="M101.494 12.496a6.427 6.427 0 0 0-1.663-1.19 21.365 21.365 0 0 0-2.053-.893c-.391-.099-.782-.297-1.076-.396l-.977-.397c-.294-.1-.685-.298-1.076-.397-.391-.099-.782-.297-1.271-.496-.684-.198-1.173-.496-1.467-.793a1.654 1.654 0 0 1-.489-1.19c0-.694.294-1.29.783-1.785.489-.496 1.368-.695 2.542-.695.782 0 1.662.1 2.542.397.782.298 1.858.694 3.227 1.19.489.199.586-.297.586-.297l.978-3.273c.098-.298-.098-.397-.195-.496a18.39 18.39 0 0 0-3.716-1.29c-2.64-.693-4.791-.594-6.747-.098-1.075.297-1.955.694-2.737 1.19-.783.595-1.37 1.289-1.858 2.082-.489.794-.782 1.885-.782 3.075 0 1.785.39 3.074 1.27 3.967.783.892 2.054 1.586 3.716 2.182.587.198.978.396 1.37.495.39.1.781.298 1.075.397.293.1.684.298.978.397.293.099.684.297 1.173.396l.684.298c.196.1.49.198.685.397.195.198.39.297.489.595.097.198.195.496.195.793 0 .793-.293 1.488-.782 2.083-.489.595-1.467.892-2.836.892-.586 0-1.173-.099-1.662-.198-.489-.1-.978-.297-1.467-.496-.488-.198-.977-.396-1.564-.694-.489-.198-.978-.496-1.564-.794-.294-.198-.392.199-.392.199l-1.368 3.67s-.098.297.097.495c1.37.694 2.64 1.19 3.912 1.587 1.368.397 2.64.595 4.008.595 3.032 0 5.28-.694 6.747-1.884 1.467-1.29 2.151-3.075 2.151-5.256 0-.992-.098-1.786-.391-2.48-.195-.793-.587-1.388-1.075-1.884zM122.027 4.165V.893c0-.199-.196-.397-.391-.397h-17.111c-.196 0-.391.198-.391.397v3.371c0 .199.195.397.391.397h5.671c.195 0 .391.199.391.397v18.149c0 .198.195.396.391.396h4.4c.196 0 .391-.198.391-.396V4.959c0-.199.196-.397.391-.397h5.671c.098 0 .196-.198.196-.397zM132.685.595l-.098-.1h-5.378c-.195 0-.293.1-.293.2l-7.822 22.214c-.098.199.097.496.293.496h4.302c.196 0 .293-.1.293-.198l1.467-4.265c.098-.099.196-.198.293-.198h7.627c.196 0 .293.099.293.297l1.369 4.265c0 .198.196.297.294.297h4.302c.293 0 .391-.198.293-.495L132.685.595zm-.587 14.38h-4.889c-.195 0-.391-.198-.391-.496l2.444-7.934c.098-.297.587-.297.685 0l2.444 7.934c.098.298 0 .496-.293.496zM159.965 23.008l-2.738-5.752a36.319 36.319 0 0 1-.978-1.884c-.293-.397-.489-.793-.88-1.19 1.271-.397 2.347-1.091 2.933-2.083.685-1.09 1.076-2.578 1.076-4.463 0-1.09-.098-2.181-.391-3.074-.293-.893-.685-1.686-1.369-2.281-.587-.595-1.467-1.09-2.542-1.388-1.076-.298-2.347-.496-3.911-.496h-4.205c-1.662 0-2.835.297-3.618.991-.782.695-1.173 1.885-1.173 3.57v18.05c0 .199.196.397.391.397h4.302c.196 0 .392-.198.392-.397v-8.132c0-.198.195-.397.391-.397h1.662c.88.199 1.564.695 2.151 1.488.587.793 1.076 1.785 1.467 2.678l1.955 4.462c.098.1.196.199.294.199h4.4c.391.198.488-.1.391-.298zm-6.454-13.09c-.489.396-1.466.694-2.737.694h-3.129c-.196 0-.391-.199-.391-.397V5.752c0-.397.097-.793.293-.992.195-.198.489-.297 1.075-.297h2.249c1.271 0 2.151.198 2.64.694.489.397.783 1.19.783 2.38s-.294 1.984-.783 2.38z"/>
</svg>
